<?xml version="1.0" encoding="UTF-8" standalone="no"?>
<!DOCTYPE svg PUBLIC "-//W3C//DTD SVG 1.1//EN"
 "http://www.w3.org/Graphics/SVG/1.1/DTD/svg11.dtd">
<!-- Generated by graphviz version 2.26.3 (20100126.1600)
 -->
<!-- Title: G Pages: 1 -->
<svg width="678pt" height="646pt"
 viewBox="0.00 0.00 678.00 646.00" xmlns="http://www.w3.org/2000/svg" xmlns:xlink="http://www.w3.org/1999/xlink">
<g id="graph1" class="graph" transform="scale(1 1) rotate(0) translate(4 642)">
<title>G</title>
<polygon fill="white" stroke="white" points="-4,5 -4,-642 675,-642 675,5 -4,5"/>
<g id="graph2" class="cluster"><title>cluster_Global</title>
<polyline fill="none" stroke="gray" points="20,-44 650,-44 "/>
<path fill="none" stroke="gray" d="M650,-44C656,-44 662,-50 662,-56"/>
<polyline fill="none" stroke="gray" points="662,-56 662,-618 "/>
<path fill="none" stroke="gray" d="M662,-618C662,-624 656,-630 650,-630"/>
<polyline fill="none" stroke="gray" points="650,-630 20,-630 "/>
<path fill="none" stroke="gray" d="M20,-630C14,-630 8,-624 8,-618"/>
<polyline fill="none" stroke="gray" points="8,-618 8,-56 "/>
<path fill="none" stroke="gray" d="M8,-56C8,-50 14,-44 20,-44"/>
<text text-anchor="middle" x="335" y="-616.1" font-family="Times Roman,serif" font-size="11.00" fill="gray">Global</text>
</g>
<g id="graph3" class="cluster"><title>cluster_\Plista</title>
<polyline fill="none" stroke="gray" points="28,-52 642,-52 "/>
<path fill="none" stroke="gray" d="M642,-52C648,-52 654,-58 654,-64"/>
<polyline fill="none" stroke="gray" points="654,-64 654,-588 "/>
<path fill="none" stroke="gray" d="M654,-588C654,-594 648,-600 642,-600"/>
<polyline fill="none" stroke="gray" points="642,-600 28,-600 "/>
<path fill="none" stroke="gray" d="M28,-600C22,-600 16,-594 16,-588"/>
<polyline fill="none" stroke="gray" points="16,-588 16,-64 "/>
<path fill="none" stroke="gray" d="M16,-64C16,-58 22,-52 28,-52"/>
<text text-anchor="middle" x="335" y="-586.1" font-family="Times Roman,serif" font-size="11.00" fill="gray">Plista</text>
</g>
<g id="graph4" class="cluster"><title>cluster_\Plista\API</title>
<polyline fill="none" stroke="gray" points="36,-60 634,-60 "/>
<path fill="none" stroke="gray" d="M634,-60C640,-60 646,-66 646,-72"/>
<polyline fill="none" stroke="gray" points="646,-72 646,-558 "/>
<path fill="none" stroke="gray" d="M646,-558C646,-564 640,-570 634,-570"/>
<polyline fill="none" stroke="gray" points="634,-570 36,-570 "/>
<path fill="none" stroke="gray" d="M36,-570C30,-570 24,-564 24,-558"/>
<polyline fill="none" stroke="gray" points="24,-558 24,-72 "/>
<path fill="none" stroke="gray" d="M24,-72C24,-66 30,-60 36,-60"/>
<text text-anchor="middle" x="335" y="-556.1" font-family="Times Roman,serif" font-size="11.00" fill="gray">API</text>
</g>
<g id="graph5" class="cluster"><title>cluster_\Plista\API\Interfaces</title>
<polyline fill="none" stroke="gray" points="44,-276 455,-276 "/>
<path fill="none" stroke="gray" d="M455,-276C461,-276 467,-282 467,-288"/>
<polyline fill="none" stroke="gray" points="467,-288 467,-446 "/>
<path fill="none" stroke="gray" d="M467,-446C467,-452 461,-458 455,-458"/>
<polyline fill="none" stroke="gray" points="455,-458 44,-458 "/>
<path fill="none" stroke="gray" d="M44,-458C38,-458 32,-452 32,-446"/>
<polyline fill="none" stroke="gray" points="32,-446 32,-288 "/>
<path fill="none" stroke="gray" d="M32,-288C32,-282 38,-276 44,-276"/>
<text text-anchor="middle" x="249.5" y="-444.1" font-family="Times Roman,serif" font-size="11.00" fill="gray">Interfaces</text>
</g>
<g id="graph6" class="cluster"><title>cluster_\Plista\API\Request</title>
<polyline fill="none" stroke="gray" points="569,-466 615,-466 "/>
<path fill="none" stroke="gray" d="M615,-466C621,-466 627,-472 627,-478"/>
<polyline fill="none" stroke="gray" points="627,-478 627,-528 "/>
<path fill="none" stroke="gray" d="M627,-528C627,-534 621,-540 615,-540"/>
<polyline fill="none" stroke="gray" points="615,-540 569,-540 "/>
<path fill="none" stroke="gray" d="M569,-540C563,-540 557,-534 557,-528"/>
<polyline fill="none" stroke="gray" points="557,-528 557,-478 "/>
<path fill="none" stroke="gray" d="M557,-478C557,-472 563,-466 569,-466"/>
<text text-anchor="middle" x="592" y="-526.1" font-family="Times Roman,serif" font-size="11.00" fill="gray">Request</text>
</g>
<g id="graph7" class="cluster"><title>cluster_\Plista\API\Response</title>
<polyline fill="none" stroke="gray" points="558,-114 626,-114 "/>
<path fill="none" stroke="gray" d="M626,-114C632,-114 638,-120 638,-126"/>
<polyline fill="none" stroke="gray" points="638,-126 638,-446 "/>
<path fill="none" stroke="gray" d="M638,-446C638,-452 632,-458 626,-458"/>
<polyline fill="none" stroke="gray" points="626,-458 558,-458 "/>
<path fill="none" stroke="gray" d="M558,-458C552,-458 546,-452 546,-446"/>
<polyline fill="none" stroke="gray" points="546,-446 546,-126 "/>
<path fill="none" stroke="gray" d="M546,-126C546,-120 552,-114 558,-114"/>
<text text-anchor="middle" x="592" y="-444.1" font-family="Times Roman,serif" font-size="11.00" fill="gray">Response</text>
</g>
<!-- \\Plista\\API\\Interfaces\\Response -->
<g id="node5" class="node"><title>\\Plista\\API\\Interfaces\\Response</title>
<polygon fill="none" stroke="black" points="458,-320 382,-320 382,-284 458,-284 458,-320"/>
<text text-anchor="start" x="390" y="-307.433" font-family="Times Roman,serif" font-size="11.00">«abstract»</text>
<text text-anchor="start" x="393.5" y="-294.233" font-family="Times Roman,serif" font-size="11.00">Response</text>
</g>
<!-- \\Plista\\API\\Interfaces\\API -->
<g id="node6" class="node"><title>\\Plista\\API\\Interfaces\\API</title>
<polygon fill="none" stroke="black" points="458,-374 382,-374 382,-338 458,-338 458,-374"/>
<text text-anchor="start" x="390" y="-361.433" font-family="Times Roman,serif" font-size="11.00">«abstract»</text>
<text text-anchor="start" x="411.5" y="-348.233" font-family="Times Roman,serif" font-size="11.00">API</text>
</g>
<!-- \\Plista\\API\\Interfaces\\Service -->
<g id="node9" class="node"><title>\\Plista\\API\\Interfaces\\Service</title>
<polygon fill="none" stroke="black" points="286,-374 230,-374 230,-338 286,-338 286,-374"/>
<text text-anchor="middle" x="258" y="-353.1" font-family="Times Roman,serif" font-size="11.00">Service</text>
</g>
<!-- \\Plista\\API\\Interfaces\\API&#45;&gt;\\Plista\\API\\Interfaces\\Service -->
<g id="edge8" class="edge"><title>\\Plista\\API\\Interfaces\\API&#45;&gt;\\Plista\\API\\Interfaces\\Service</title>
<path fill="none" stroke="black" stroke-dasharray="1,5" d="M381.197,-356C355.446,-356 321.801,-356 296.179,-356"/>
<polygon fill="none" stroke="black" points="296.087,-352.5 286.087,-356 296.087,-359.5 296.087,-352.5"/>
</g>
<!-- \\Plista\\API\\Interfaces\\Request -->
<g id="node7" class="node"><title>\\Plista\\API\\Interfaces\\Request</title>
<polygon fill="none" stroke="black" points="458,-428 382,-428 382,-392 458,-392 458,-428"/>
<text text-anchor="start" x="390" y="-415.433" font-family="Times Roman,serif" font-size="11.00">«abstract»</text>
<text text-anchor="start" x="397.5" y="-402.233" font-family="Times Roman,serif" font-size="11.00">Request</text>
</g>
<!-- \\Plista\\API\\Interfaces\\ServiceDescription -->
<g id="node8" class="node"><title>\\Plista\\API\\Interfaces\\ServiceDescription</title>
<polygon fill="none" stroke="black" points="157,-374 41,-374 41,-338 157,-338 157,-374"/>
<text text-anchor="middle" x="99" y="-353.1" font-family="Times Roman,serif" font-size="11.00">ServiceDescription</text>
</g>
<!-- \\Plista\\API\\Interfaces\\Service&#45;&gt;\\Plista\\API\\Interfaces\\ServiceDescription -->
<g id="edge26" class="edge"><title>\\Plista\\API\\Interfaces\\Service&#45;&gt;\\Plista\\API\\Interfaces\\ServiceDescription</title>
<path fill="none" stroke="black" d="M229.94,-356C212.7,-356 189.805,-356 167.985,-356"/>
<polygon fill="none" stroke="black" points="167.726,-352.5 157.726,-356 167.726,-359.5 167.726,-352.5"/>
</g>
<!-- \\Plista\\API\\Request\\Http -->
<g id="node11" class="node"><title>\\Plista\\API\\Request\\Http</title>
<polygon fill="none" stroke="black" points="619,-510 565,-510 565,-474 619,-474 619,-510"/>
<text text-anchor="middle" x="592" y="-489.1" font-family="Times Roman,serif" font-size="11.00">Http</text>
</g>
<!-- \\Plista\\API\\Request\\Http&#45;&gt;\\Plista\\API\\Interfaces\\Request -->
<g id="edge12" class="edge"><title>\\Plista\\API\\Request\\Http&#45;&gt;\\Plista\\API\\Interfaces\\Request</title>
<path fill="none" stroke="black" d="M564.746,-479.007C538.649,-466.565 498.728,-447.533 467.415,-432.605"/>
<polygon fill="none" stroke="black" points="468.532,-429.26 457.999,-428.116 465.519,-435.579 468.532,-429.26"/>
</g>
<!-- \\Plista\\API\\Response\\StdArray -->
<g id="node13" class="node"><title>\\Plista\\API\\Response\\StdArray</title>
<polygon fill="none" stroke="black" points="624,-428 560,-428 560,-392 624,-392 624,-428"/>
<text text-anchor="middle" x="592" y="-407.1" font-family="Times Roman,serif" font-size="11.00">StdArray</text>
</g>
<!-- \\Plista\\API\\Response\\StdArray&#45;&gt;\\Plista\\API\\Interfaces\\Response -->
<g id="edge14" class="edge"><title>\\Plista\\API\\Response\\StdArray&#45;&gt;\\Plista\\API\\Interfaces\\Response</title>
<path fill="none" stroke="black" d="M559.882,-392.097C555.143,-389.185 550.384,-386.102 546,-383 515.62,-361.503 513.615,-348.636 482,-329 477.563,-326.245 472.797,-323.631 467.948,-321.194"/>
<polygon fill="none" stroke="black" points="469.123,-317.877 458.59,-316.734 466.111,-324.196 469.123,-317.877"/>
</g>
<!-- \\Plista\\API\\Response\\DataTables -->
<g id="node14" class="node"><title>\\Plista\\API\\Response\\DataTables</title>
<polygon fill="none" stroke="black" points="630,-374 554,-374 554,-338 630,-338 630,-374"/>
<text text-anchor="middle" x="592" y="-353.1" font-family="Times Roman,serif" font-size="11.00">DataTables</text>
</g>
<!-- \\Plista\\API\\Response\\DataTables&#45;&gt;\\Plista\\API\\Interfaces\\Response -->
<g id="edge16" class="edge"><title>\\Plista\\API\\Response\\DataTables&#45;&gt;\\Plista\\API\\Interfaces\\Response</title>
<path fill="none" stroke="black" d="M553.828,-344.016C528.618,-336.101 495.369,-325.662 468.319,-317.17"/>
<polygon fill="none" stroke="black" points="469.25,-313.794 458.66,-314.138 467.153,-320.472 469.25,-313.794"/>
</g>
<!-- \\Plista\\API\\Response\\XML -->
<g id="node15" class="node"><title>\\Plista\\API\\Response\\XML</title>
<polygon fill="none" stroke="black" points="619,-320 565,-320 565,-284 619,-284 619,-320"/>
<text text-anchor="middle" x="592" y="-299.1" font-family="Times Roman,serif" font-size="11.00">XML</text>
</g>
<!-- \\Plista\\API\\Response\\XML&#45;&gt;\\Plista\\API\\Interfaces\\Response -->
<g id="edge18" class="edge"><title>\\Plista\\API\\Response\\XML&#45;&gt;\\Plista\\API\\Interfaces\\Response</title>
<path fill="none" stroke="black" d="M564.746,-302C539.044,-302 499.934,-302 468.844,-302"/>
<polygon fill="none" stroke="black" points="468.639,-298.5 458.639,-302 468.639,-305.5 468.639,-298.5"/>
</g>
<!-- \\Plista\\API\\Response\\JSON -->
<g id="node16" class="node"><title>\\Plista\\API\\Response\\JSON</title>
<polygon fill="none" stroke="black" points="619,-266 565,-266 565,-230 619,-230 619,-266"/>
<text text-anchor="middle" x="592" y="-245.1" font-family="Times Roman,serif" font-size="11.00">JSON</text>
</g>
<!-- \\Plista\\API\\Response\\JSON&#45;&gt;\\Plista\\API\\Interfaces\\Response -->
<g id="edge20" class="edge"><title>\\Plista\\API\\Response\\JSON&#45;&gt;\\Plista\\API\\Interfaces\\Response</title>
<path fill="none" stroke="black" d="M564.746,-256.556C538.933,-264.661 499.593,-277.011 468.439,-286.792"/>
<polygon fill="none" stroke="black" points="467.131,-283.535 458.639,-289.869 469.228,-290.213 467.131,-283.535"/>
</g>
<!-- \\Plista\\API\\Response\\MySQL -->
<g id="node17" class="node"><title>\\Plista\\API\\Response\\MySQL</title>
<polygon fill="none" stroke="black" points="619,-212 565,-212 565,-176 619,-176 619,-212"/>
<text text-anchor="middle" x="592" y="-191.1" font-family="Times Roman,serif" font-size="11.00">MySQL</text>
</g>
<!-- \\Plista\\API\\Response\\MySQL&#45;&gt;\\Plista\\API\\Interfaces\\Response -->
<g id="edge22" class="edge"><title>\\Plista\\API\\Response\\MySQL&#45;&gt;\\Plista\\API\\Interfaces\\Response</title>
<path fill="none" stroke="black" d="M564.142,-209.059C558.006,-212.728 551.654,-216.81 546,-221 514.918,-244.035 515.125,-260.014 482,-280 477.65,-282.625 472.939,-285.002 468.125,-287.137"/>
<polygon fill="none" stroke="black" points="466.737,-283.924 458.807,-290.949 469.387,-290.402 466.737,-283.924"/>
</g>
<!-- \\Plista\\API\\Response\\StdObject -->
<g id="node18" class="node"><title>\\Plista\\API\\Response\\StdObject</title>
<polygon fill="none" stroke="black" points="627,-158 557,-158 557,-122 627,-122 627,-158"/>
<text text-anchor="middle" x="592" y="-137.1" font-family="Times Roman,serif" font-size="11.00">StdObject</text>
</g>
<!-- \\Plista\\API\\Response\\StdObject&#45;&gt;\\Plista\\API\\Interfaces\\Response -->
<g id="edge24" class="edge"><title>\\Plista\\API\\Response\\StdObject&#45;&gt;\\Plista\\API\\Interfaces\\Response</title>
<path fill="none" stroke="black" d="M556.421,-158.236C552.685,-160.904 549.119,-163.833 546,-167 505.504,-208.127 526.211,-242.896 482,-280 477.79,-283.534 472.971,-286.516 467.922,-289.03"/>
<polygon fill="none" stroke="black" points="466.434,-285.86 458.666,-293.066 469.232,-292.277 466.434,-285.86"/>
</g>
<!-- \\Plista\\API\\Exception -->
<g id="node19" class="node"><title>\\Plista\\API\\Exception</title>
<polygon fill="none" stroke="black" points="627,-104 557,-104 557,-68 627,-68 627,-104"/>
<text text-anchor="middle" x="592" y="-83.1" font-family="Times Roman,serif" font-size="11.00">Exception</text>
</g>
<!-- \\Exception -->
<g id="node22" class="node"><title>\\Exception</title>
<ellipse fill="none" stroke="black" cx="420" cy="-18" rx="62.2254" ry="18.3848"/>
<text text-anchor="middle" x="420" y="-14.4" font-family="Times Roman,serif" font-size="14.00" fill="gray">\Exception</text>
</g>
<!-- \\Plista\\API\\Exception&#45;&gt;\\Exception -->
<g id="edge10" class="edge"><title>\\Plista\\API\\Exception&#45;&gt;\\Exception</title>
<path fill="none" stroke="black" d="M556.778,-72.0751C530.641,-61.7418 494.755,-47.5542 466.298,-36.3041"/>
<polygon fill="none" stroke="black" points="467.544,-33.033 456.958,-32.6112 464.971,-39.5427 467.544,-33.033"/>
</g>
</g>
</svg>
